<?xml version="1.0" encoding="UTF-8"?>
<svg width="429px" height="250px" viewBox="0 0 429 250" version="1.1" xmlns="http://www.w3.org/2000/svg" xmlns:xlink="http://www.w3.org/1999/xlink">
    <!-- Generator: Sketch 54.1 (76490) - https://sketchapp.com -->
    <title>kangaroo</title>
    <desc>Created with Sketch.</desc>
    <g id="Page-1" stroke="none" stroke-width="1" fill="none" fill-rule="evenodd">
        <g id="Artboard" transform="translate(-208.000000, 0.000000)" fill="#EF6D81" fill-rule="nonzero">
            <g id="Group">
                <g id="kangaroo" transform="translate(208.000000, 0.000000)">
                    <path d="M0,156.357272 C0,156.357272 41.338888,193.45434 80.2073245,166.084948 C119.075761,138.715555 157.395208,70.5668673 182.923207,46.8247437 C208.451205,23.0826202 276.031778,-4.34173093 321.488085,34.6788888 C334.224635,45.6156541 358.544857,61.4437365 379.845639,32.2607096 C401.091521,3.07768269 413.279082,0 413.279082,0 C413.279082,0 410.643934,16.7074203 404.769749,26.1603028 C404.769749,26.1603028 435.128853,63.2573709 427.882195,71.775957 C420.635538,80.294543 397.523092,48.6383782 381.712202,63.8619158 C365.901313,79.0854533 364.089648,90.6267634 340.977202,100.354439 C317.864756,110.082115 330.656205,133.824238 316.65698,144.156459 C302.657755,154.488679 293.544534,156.302314 295.411097,147.783728 C297.222762,139.265142 310.01421,138.660597 309.410322,119.80979 C308.806434,100.958984 288.16444,102.772618 272.957438,105.795342 C257.750437,108.818066 234.967385,137.506466 210.372668,152.015541 C172.712007,174.218824 174.523672,186.69443 170.845444,206.149781 C167.222115,225.605133 148.336886,248.742711 133.184784,249.951801 C117.977783,251.160891 141.694117,229.28736 147.184009,221.977864 C152.673901,214.668367 152.619002,181.14361 160.249952,170.591555 C170.57095,156.302314 201.259447,138.056052 201.259447,115.523018 C201.259447,108.818066 200.655559,105.795342 189.126785,105.795342 C177.598011,105.795342 193.354002,88.7581703 178.805788,94.8585771 C164.257574,100.958984 126.432217,158.775451 85.0933285,180.703941 C43.7544405,202.577471 7.90544471,173.998989 0,156.357272 Z" id="Path"></path>
                </g>
            </g>
        </g>
    </g>
</svg>