<?xml version="1.0" encoding="UTF-8"?>
<svg width="292px" height="549px" viewBox="0 0 292 549" version="1.1" xmlns="http://www.w3.org/2000/svg" xmlns:xlink="http://www.w3.org/1999/xlink">
    <!-- Generator: Sketch 54.1 (76490) - https://sketchapp.com -->
    <title>stand_kangaroo</title>
    <desc>Created with Sketch.</desc>
    <g id="stand_kangaroo" stroke="none" stroke-width="1" fill="none" fill-rule="evenodd">
        <path d="M231.3,521.445417 C231.3,521.445417 220.5,477.345417 231.3,437.745417 C242.1,398.145417 261.9,381.945417 252.9,344.245417 C243.9,306.445417 225,257.945417 198.9,235.445417 C198.9,235.445417 212.4,191.345417 198.9,157.145417 C185.4,122.945417 171,88.7454169 171,88.7454169 C171,88.7454169 181.8,71.6454169 176.4,52.7454169 C176.4,52.7454169 200.7,9.54541687 198.9,1.44541687 C197.1,-6.65458313 169.2,21.2454169 154.8,36.5454169 L145.8,37.4454169 L136.8,36.5454169 C122.4,21.2454169 94.5,-6.65458313 92.7,1.44541687 C90.9,9.54541687 115.2,52.7454169 115.2,52.7454169 C109.8,71.6454169 120.6,88.7454169 120.6,88.7454169 C120.6,88.7454169 106.2,122.945417 92.7,157.145417 C79.2,191.345417 92.7,235.445417 92.7,235.445417 C66.6,257.945417 47.7,306.545417 38.7,344.245417 C29.7,382.045417 49.5,398.245417 60.3,437.745417 C71.1,477.345417 60.3,521.445417 60.3,521.445417 C15.3,520.545417 0,546.645417 0,546.645417 C0,546.645417 81.9,551.145417 86.3,546.645417 C90.8,542.145417 91.7,535.845417 88.1,520.545417 C84.5,505.245417 85.4,429.745417 85.4,429.745417 C85.4,429.745417 104.3,446.545417 104.3,469.345417 C104.3,485.545417 107.3,508.045417 116.3,518.845417 C125.3,529.645417 164.9,529.645417 173.9,518.845417 C182.9,508.045417 187.1,485.545417 187.1,469.345417 C187.1,451.645417 206,429.745417 206,429.745417 C206,429.745417 206.9,505.345417 203.3,520.545417 C199.7,535.845417 200.6,542.145417 205.1,546.645417 C209.6,551.145417 291.4,546.645417 291.4,546.645417 C291.4,546.645417 276.3,520.545417 231.3,521.445417 Z" id="Path" fill="#8C8181" fill-rule="nonzero"></path>
    </g>
</svg>